{"title":"\nDisturbia 2007 720p Esub BluRay Dual Audio English Hindi GOPISAH","magnet":"magnet:?xt=urn:btih:afcf9444c5929f6fde7adf121b59fb765f966e15&dn=Disturbia+2007+720p+Esub+BluRay+Dual+Audio+English+Hindi+GOPISAH&tr=udp%3A%2F%2Ftracker.leechers-paradise.org%3A6969&tr=udp%3A%2F%2Fzer0day.ch%3A1337&tr=udp%3A%2F%2Fopen.demonii.com%3A1337&tr=udp%3A%2F%2Ftracker.coppersurfer.tk%3A6969&tr=udp%3A%2F%2Fexodus.desync.com%3A6969","uploader":"jatt13","categoryP":"video","categoryS":"movies","size":"767570608","seeders":"27","leechers":"266","description":"[center][img]https://i.imgur.com/B8r813v.jpg[/img]\r\nFormat                         : Matroska\r\nFormat version                 : Version 4 / Version 2\r\nFile size                      : 732 MiB\r\nDuration                       : 1 h 35 min\r\nOverall bit rate               : 1 070 kb/s\r\nMovie name                     : Disturbia 2007 \r\n\r\nVideo\r\nFormat                         : AVC\r\nCodec ID                       : V_MPEG4/ISO/AVC\r\nDuration                       : 1 h 35 min\r\nBit rate                       : 890 kb/s\r\nNominal bit rate               : 837 kb/s\r\nWidth                          : 1 280 pixels\r\nHeight                         : 720 pixels\r\nDisplay aspect ratio           : 16:9\r\nFrame rate mode                : Constant\r\nFrame rate                     : 25.000 FPS\r\nOriginal frame rate            : 23.976 (24000/1001) FPS\r\nStream size                    : 609 MiB (83%)\r\nWriting library                : x264 \r\n\r\nAudio #1\r\nFormat                         : AAC\r\nDuration                       : 1 h 35 min\r\nBit rate                       : 88.8 kb/s\r\nChannel(s)                     : 6 channels\r\nChannel positions              : Front: L C R, Side: L R, LFE\r\nSampling rate                  : 44.1 kHz\r\nFrame rate                     : 43.066 FPS (1024 SPF)\r\nStream size                    : 60.7 MiB (8%)\r\nLanguage                       : Hindi\r\n\r\nAudio #2\r\nFormat                         : AAC\r\nDuration                       : 1 h 35 min\r\nBit rate                       : 88.1 kb/s\r\nChannel(s)                     : 6 channels\r\nChannel positions              : Front: L C R, Side: L R, LFE\r\nSampling rate                  : 44.1 kHz\r\nFrame rate                     : 43.066 FPS (1024 SPF)\r\nStream size                    : 60.3 MiB (8%)\r\nLanguage                       : English\r\n\r\nText\r\nLanguage                       : English\r\n[img]https://i.imgur.com/inqwO0v.jpg[/img]\r\n[img]https://i.imgur.com/q8lhiM9.jpg[/img]\r\n[img]https://i.imgur.com/QAsil51.jpg[/img][/center]","last_updated":"2017-10-14T12:08:26.433Z","parsed":{"xt":"urn:btih:afcf9444c5929f6fde7adf121b59fb765f966e15","dn":"Disturbia 2007 720p Esub BluRay Dual Audio English Hindi GOPISAH","tr":["udp://exodus.desync.com:6969","udp://open.demonii.com:1337","udp://tracker.coppersurfer.tk:6969","udp://tracker.leechers-paradise.org:6969","udp://zer0day.ch:1337"],"infoHash":"afcf9444c5929f6fde7adf121b59fb765f966e15","infoHashBuffer":{"type":"Buffer","data":[175,207,148,68,197,146,159,111,222,122,223,18,27,89,251,118,95,150,110,21]},"name":"Disturbia 2007 720p Esub BluRay Dual Audio English Hindi GOPISAH","announce":["udp://exodus.desync.com:6969","udp://open.demonii.com:1337","udp://tracker.coppersurfer.tk:6969","udp://tracker.leechers-paradise.org:6969","udp://zer0day.ch:1337"],"urlList":[]}}